<svg width="143" height="25" viewBox="0 0 143 25" fill="none" xmlns="http://www.w3.org/2000/svg">
<path d="M0.256579 1.04737V24H5.25329V15.7474H10.4112C15.0211 15.7474 18.5671 13.4263 18.5671 8.4296C18.5671 3.36842 15.1178 1.04737 10.1533 1.04737H0.256579ZM5.25329 5.17368H9.76645C11.9908 5.17368 13.6671 6.04408 13.6671 8.49408C13.6671 11.0408 11.9908 11.7822 9.73421 11.7822H5.25329V5.17368ZM36.8774 18.8421H32.4932C31.8162 20.5184 30.7846 21.2599 29.1083 21.2599C26.6583 21.2599 25.2721 19.7125 25.2076 16.8434H37.1353V16.3921C37.1353 10.5572 33.9438 6.88224 28.9149 6.88224C24.0794 6.88224 20.5655 10.6217 20.5655 15.7796C20.5655 21.002 23.9504 24.4836 29.0761 24.4836C32.8478 24.4836 35.8458 22.4526 36.8774 18.8421ZM32.4932 13.9421H25.2076C25.4655 11.6211 26.884 10.2026 28.9149 10.2026C31.2037 10.2026 32.2997 11.9112 32.4932 13.9421ZM50.5529 7.07566C50.1015 7.01118 49.9081 6.97895 49.5535 6.97895C47.0713 6.97895 45.2015 8.26842 44.17 10.4283V7.36579H39.818V24H44.3956V16.3921C44.3956 13.3618 45.6206 11.1053 48.7798 11.1053C49.2956 11.1053 49.7469 11.1375 50.5529 11.2987V7.07566Z" fill="#483ADA"/>
<path d="M69.7554 7.88158C69.6587 2.75592 65.7581 0.563813 60.9225 0.563813C55.5712 0.563813 52.0896 3.27171 52.0896 7.43026C52.0896 12.1046 55.6679 13.0395 59.4074 14.1033C64.1462 15.4572 65.6936 15.7796 65.6936 17.5849C65.6936 19.4868 64.0817 20.6474 61.4383 20.6474C58.3758 20.6474 56.3449 19.4224 56.2482 16.3276H51.2515C51.316 21.5178 54.991 24.5158 61.2127 24.5158C65.887 24.5158 70.6581 22.5171 70.6581 17.1013C70.6581 13.2651 68.0469 11.6855 63.9528 10.525C59.3752 9.23552 56.9252 9.07434 56.9252 7.07566C56.9252 5.43158 58.3114 4.46447 60.6324 4.46447C63.3081 4.46447 64.791 5.65724 64.9844 7.88158H69.7554ZM81.4063 6.88224C76.1839 6.88224 72.7346 10.3961 72.7346 15.6829C72.7346 21.002 76.1517 24.5158 81.3418 24.5158C86.5319 24.5158 89.9168 21.0342 89.9168 15.6829C89.9168 10.3961 86.5319 6.88224 81.4063 6.88224ZM81.2773 10.3638C83.824 10.3638 85.3392 12.3303 85.3392 15.6507C85.3392 19.0678 83.8563 21.0664 81.3418 21.0664C78.7951 21.0664 77.3122 19.1 77.3122 15.6829C77.3122 12.3625 78.8273 10.3638 81.2773 10.3638ZM108.786 17.5849H104.369C104.015 19.777 102.79 20.9375 100.823 20.9375C98.3734 20.9375 96.955 19.0355 96.955 15.7151C96.955 12.298 98.4379 10.2993 100.92 10.2993C102.693 10.2993 103.886 11.3309 104.208 13.1684H108.689C108.302 9.3 105.337 6.88224 100.888 6.88224C95.73 6.88224 92.3452 10.4283 92.3452 15.8118C92.3452 21.002 95.6978 24.4191 100.823 24.4191C105.24 24.4191 108.206 21.9046 108.786 17.5849ZM116.143 1.04737H111.565V4.91579H116.143V1.04737ZM116.143 7.36579H111.565V24H116.143V7.36579ZM135.221 24C134.609 22.5816 134.641 21.002 134.641 19.4868V12.298C134.641 7.65592 130.74 6.88224 127.388 6.88224C122.584 6.88224 119.941 8.78421 119.683 12.4914H123.97C124.293 10.5895 125.163 9.94474 127.259 9.94474C129.29 9.94474 130.257 10.6539 130.257 12.1691C130.257 13.523 129.161 13.7809 126.195 14.1678C122.907 14.5868 118.942 15.1026 118.942 19.4546C118.942 22.5816 121.198 24.4836 124.873 24.4836C126.872 24.4836 128.838 23.8066 130.257 22.3882C130.321 23.1296 130.353 23.3875 130.579 24H135.221ZM130.224 15.9086V17.7783C130.224 20.1638 128.548 21.4855 126.163 21.4855C124.583 21.4855 123.648 20.6474 123.648 19.2612C123.648 17.2303 125.421 17.0368 127.001 16.7789C128.161 16.5855 129.161 16.5211 130.224 15.9086ZM142.965 1.04737H138.387V24H142.965V1.04737Z" fill="black"/>
</svg>
